<svg width="152" height="146" viewBox="0 0 152 146" fill="none" xmlns="http://www.w3.org/2000/svg">
<path d="M0 80.5057V72.8352C5.76136 72.8352 9.78409 71.6591 12.0682 69.3068C14.3523 66.9205 15.4943 62.983 15.4943 57.4943V42.8182C15.4943 37.6023 16.0739 33.2216 17.233 29.6761C18.4261 26.0966 20.233 23.233 22.6534 21.0852C25.0739 18.9375 28.142 17.3864 31.858 16.4318C35.5739 15.4773 39.9545 15 45 15V27.1193C41.0455 27.1193 37.9602 27.6989 35.7443 28.858C33.5284 30.017 31.9773 31.8239 31.0909 34.2784C30.2386 36.6989 29.8125 39.8011 29.8125 43.5852V62.1989C29.8125 64.8239 29.4205 67.2614 28.6364 69.5114C27.8523 71.7273 26.4034 73.6534 24.2898 75.2898C22.1761 76.9261 19.1591 78.2045 15.2386 79.125C11.3182 80.0455 6.23864 80.5057 0 80.5057ZM45 145.449C39.9545 145.449 35.5739 144.972 31.858 144.017C28.142 143.062 25.0739 141.511 22.6534 139.364C20.233 137.216 18.4261 134.352 17.233 130.773C16.0739 127.227 15.4943 122.847 15.4943 117.631V102.903C15.4943 97.4489 14.3523 93.5284 12.0682 91.142C9.78409 88.7557 5.76136 87.5625 0 87.5625V79.9432C6.23864 79.9432 11.3182 80.4034 15.2386 81.3239C19.1591 82.2102 22.1761 83.4886 24.2898 85.1591C26.4034 86.7955 27.8523 88.7386 28.6364 90.9886C29.4205 93.2045 29.8125 95.625 29.8125 98.25V116.864C29.8125 120.614 30.2386 123.699 31.0909 126.119C31.9773 128.574 33.5284 130.381 35.7443 131.54C37.9602 132.733 41.0455 133.33 45 133.33V145.449ZM0 87.5625V72.8352H14.1648V87.5625H0Z" fill="#F0F0F0"/>
<path d="M96 2H114V20H96V2Z" fill="#0D41FF"/>
<path d="M127 19H141V33H127V19Z" fill="#0D41FF"/>
<path d="M142 0H152V10H142V0Z" fill="#0D41FF"/>
<path d="M105 41H115V51H105V41Z" fill="#0D41FF"/>
<path fill-rule="evenodd" clip-rule="evenodd" d="M93.9318 91.142C96.2159 88.7557 100.239 87.5625 106 87.5625V72.8352C100.239 72.8352 96.2159 71.6591 93.9318 69.3068C91.6477 66.9205 90.5057 62.983 90.5057 57.4943V48H84V38H90.3169C90.0552 34.8446 89.5215 32.07 88.7159 29.6761C87.5568 26.0966 85.767 23.233 83.3466 21.0852C80.9261 18.9375 77.858 17.3864 74.142 16.4318C70.4261 15.4773 66.0455 15 61 15V27.1193C64.9545 27.1193 68.0398 27.6989 70.2557 28.858C72.4716 30.017 74.0057 31.8239 74.858 34.2784C75.7443 36.6989 76.1875 39.8011 76.1875 43.5852V62.1989C76.1875 64.8239 76.5795 67.2614 77.3636 69.5114C78.1477 71.7273 79.5966 73.6534 81.7102 75.2898C83.8239 76.9261 86.8409 78.2045 90.7614 79.125C91.1101 79.2069 91.4681 79.2851 91.8352 79.3597V81.0891C91.4681 81.1637 91.1101 81.242 90.7614 81.3239C86.8409 82.2102 83.8239 83.4886 81.7102 85.1591C79.5966 86.7955 78.1477 88.7386 77.3636 90.9886C76.5795 93.2046 76.1875 95.625 76.1875 98.25V116.864C76.1875 120.614 75.7443 123.699 74.858 126.119C74.0057 128.574 72.4716 130.381 70.2557 131.54C68.0398 132.733 64.9545 133.33 61 133.33V145.449C66.0455 145.449 70.4261 144.972 74.142 144.017C77.858 143.062 80.9261 141.511 83.3466 139.364C85.767 137.216 87.5568 134.352 88.7159 130.773C89.9091 127.227 90.5057 122.847 90.5057 117.631V102.903C90.5057 97.4489 91.6477 93.5284 93.9318 91.142ZM84 25H78V31H84V25Z" fill="#0D41FF"/>
</svg>
